<svg width="48" height="48" viewBox="0 0 48 48" fill="none" xmlns="http://www.w3.org/2000/svg">
<path d="M45.8248 23.5222C45.071 25.175 43.2001 25.417 42.0557 25.3011C41.7405 25.0455 41.415 24.8002 41.0757 24.5718C39.1227 23.2632 36.8818 22.5237 34.6614 22.1523C34.6066 22.1455 34.5449 22.1352 34.4832 22.125C34.3736 22.108 34.2639 22.0909 34.1543 22.0739C34.0892 22.0671 34.0207 22.0569 33.9521 22.0466C33.421 21.9785 32.8934 21.9274 32.3691 21.8933C32.3725 21.8933 32.376 21.8933 32.3794 21.8933C32.0984 21.8763 31.814 21.866 31.5331 21.866C31.5331 21.866 31.6804 21.423 31.5776 20.9527L32.2492 20.7517V20.7483C35.4701 19.6544 39.3591 18.9898 43.0151 19.9679C43.0322 19.9713 43.046 19.9747 43.0597 19.9781C43.5805 20.0837 44.1287 20.3155 44.605 20.6358C45.0641 20.9391 46.4964 22.0501 45.8248 23.5222ZM42.7684 32.2053C41.1751 34.0149 39.1569 32.8085 38.7663 32.5495C38.7081 32.5086 38.6464 32.4643 38.595 32.4234C38.3688 32.1883 38.1187 31.9497 37.8652 31.7078C36.9263 29.905 35.4358 28.3068 33.3936 26.9368C32.4068 26.2757 31.3994 25.7441 30.4366 25.3079L29.8404 25.0455C29.8747 25.0148 29.9055 24.9842 29.9398 24.9535C30.1419 24.7627 30.6148 24.2924 30.9608 23.7437C30.9574 23.7437 30.9574 23.7437 30.954 23.7437C31.0534 23.5836 31.1424 23.4166 31.2213 23.2496C34.1372 23.2803 37.4745 23.8698 40.2774 25.7441C40.7742 26.0781 41.2505 26.4495 41.6959 26.8517C41.7062 26.8619 41.7199 26.8755 41.7302 26.8857C42.6245 27.5877 43.2995 28.852 43.4057 30.0345C43.488 30.8967 43.2755 31.6294 42.7684 32.2053ZM37.0188 37.1569C36.683 37.8316 36.0183 38.721 34.7813 39.13C33.6883 39.4878 32.7563 39.4162 32.0093 38.9153C31.557 38.6154 31.1938 38.1588 31.0054 37.6578C30.4126 34.1648 28.2916 29.8573 26.4996 26.9403L26.4276 26.8108C27.2774 26.5449 28.4287 26.0031 28.4287 26.0031C29.7684 26.5075 31.2281 27.1958 32.5953 28.1091C35.1343 29.8062 36.7241 31.8714 37.3238 34.2432C37.3272 34.2636 37.3341 34.2841 37.3409 34.3011C37.6184 35.0951 37.4917 36.2163 37.0188 37.1569ZM24.2039 42.2106C24.1353 42.214 24.0668 42.214 23.9983 42.2106C23.9332 42.214 23.8612 42.214 23.7961 42.2106C20.8528 42.1697 19.5096 40.4215 19.5302 39.2561C19.5884 35.2587 21.7779 30.0925 23.2856 26.9914C23.3541 26.9982 23.4226 27.0016 23.4912 27.005V27.0084C23.6625 27.0186 23.8955 27.0289 23.9983 27.0254C24.1011 27.0289 24.3341 27.0186 24.5054 27.0084V27.005C24.5774 27.0016 24.6459 26.9982 24.711 26.9914C26.2221 30.0925 28.4116 35.2587 28.4698 39.2561C28.4869 40.4215 27.1438 42.1697 24.2039 42.2106ZM16.9946 37.6578C16.8027 38.1588 16.4395 38.6154 15.9907 38.9153C15.2437 39.4162 14.3117 39.4878 13.2187 39.13C11.9783 38.721 11.3135 37.8316 10.9778 37.1569C10.5083 36.2163 10.3815 35.0951 10.6591 34.3011C10.6659 34.2841 10.6728 34.2636 10.6762 34.2432C11.2724 31.8714 12.8657 29.8062 15.4047 28.1091C16.7685 27.1958 18.2281 26.5075 19.5679 26.0031C19.5679 26.0031 20.7226 26.5449 21.5724 26.8108L21.5004 26.9403C19.7084 29.8573 17.5874 34.1648 16.9946 37.6578ZM10.1348 31.7078C9.88129 31.9497 9.63115 32.1883 9.40501 32.4234C9.35018 32.4643 9.29194 32.5086 9.23026 32.5495C8.83964 32.8085 6.82489 34.0149 5.23158 32.2053C4.72447 31.6294 4.51203 30.8967 4.59084 30.0345C4.70048 28.852 5.3755 27.5877 6.26637 26.8857C6.28008 26.8755 6.29379 26.8619 6.30406 26.8517C6.74608 26.4495 7.22236 26.0781 7.72604 25.7441C10.5255 23.8698 13.8663 23.2803 16.7787 23.2496C16.8541 23.4166 16.9466 23.5836 17.046 23.7437C17.0426 23.7437 17.0426 23.7437 17.0392 23.7437C17.3852 24.2924 17.8547 24.7627 18.0602 24.9535C18.0945 24.9842 18.1253 25.0148 18.1596 25.0455L17.56 25.3079C16.6006 25.7441 15.5898 26.2757 14.6064 26.9368C12.5608 28.3068 11.0737 29.905 10.1348 31.7078ZM2.17176 23.5222C1.50017 22.0501 2.93586 20.9391 3.39158 20.6358C3.86785 20.3155 4.41609 20.0837 4.93691 19.9781C4.95404 19.9747 4.96775 19.9713 4.98488 19.9679C8.64091 18.9898 12.5299 19.6544 15.7474 20.7483L15.7508 20.7517L16.4224 20.9527C16.3162 21.423 16.4635 21.866 16.4635 21.866C16.186 21.866 15.9016 21.8763 15.6206 21.8933C15.6206 21.8933 15.624 21.8933 15.6309 21.8933C15.1066 21.9274 14.579 21.9785 14.0479 22.0466C13.9759 22.0569 13.9108 22.0671 13.8457 22.0739C13.736 22.0909 13.6264 22.108 13.5168 22.125C13.4517 22.1352 13.3934 22.1455 13.3352 22.1523C11.1148 22.5237 8.87733 23.2632 6.92425 24.5718C6.58503 24.8002 6.25952 25.0455 5.94429 25.3011C4.79985 25.417 2.92901 25.175 2.17176 23.5222ZM4.07002 16.7441C4.13169 15.6127 4.88894 14.8732 5.51255 14.454C6.39658 13.8611 7.58899 13.5408 8.55182 13.6328L8.56553 13.6362H8.59979C12.4785 13.7384 15.7645 15.6638 18.211 17.8278C17.9951 18.0084 17.8033 18.1958 17.6251 18.3935C17.6251 18.3901 17.6217 18.3901 17.6217 18.3901C17.3818 18.6525 17.1111 19.0035 16.8918 19.4124C16.8541 19.484 16.8199 19.5521 16.789 19.6237C13.2015 18.3185 8.77797 17.4938 4.63538 18.5979L4.61825 18.6013C4.25504 18.1447 4.02547 17.5381 4.07002 16.7441ZM10.5186 9.67971C10.7482 9.36278 11.0326 9.09016 11.3718 8.86184C12.8589 7.86676 15.1649 7.97921 16.3847 8.71189C16.4018 8.72212 16.4155 8.72893 16.4327 8.73575C19.6398 10.3408 21.4147 13.2579 22.3639 16.0932C22.0452 16.1375 21.7368 16.1988 21.4319 16.2704C20.9008 16.4033 20.1949 16.635 19.4205 17.0235C17.0529 14.8596 13.9177 12.8865 10.2137 12.3582C10.1006 12.1538 10.0046 11.9425 9.96009 11.7244C9.82646 11.0667 10.0149 10.3817 10.5186 9.67971ZM21.7403 6.02995C22.3639 5.61079 23.1245 5.38247 23.9983 5.34498C24.8755 5.38247 25.6361 5.61079 26.2597 6.02995C27.2431 6.68766 27.6063 7.62821 27.6132 8.23139C27.6235 8.79709 27.5892 9.39005 27.531 9.99323C26.2015 11.3904 25.2798 12.9955 24.6459 14.5767C24.4814 15.03 24.3444 15.5071 24.2484 16.0046H23.7516C23.6556 15.5071 23.5186 15.03 23.3541 14.5767C22.7202 12.9955 21.7985 11.3904 20.469 9.99323C20.4074 9.39005 20.3765 8.79709 20.3834 8.23139C20.3937 7.62821 20.7534 6.68766 21.7403 6.02995ZM31.5673 8.73575C31.581 8.72893 31.5982 8.72212 31.6153 8.71189C32.8351 7.97921 35.1377 7.86676 36.6282 8.86184C36.964 9.09016 37.2518 9.36278 37.478 9.67971C37.9851 10.3817 38.1735 11.0667 38.0365 11.7244C37.9919 11.9425 37.8994 12.1538 37.7863 12.3582C34.0789 12.8865 30.9437 14.8596 28.576 17.0235C27.8051 16.635 27.0958 16.4033 26.5647 16.2704C26.2632 16.1988 25.9514 16.1375 25.6361 16.0932C26.5853 13.2579 28.3567 10.3408 31.5673 8.73575ZM39.4002 13.6362H39.431L39.4482 13.6328C40.411 13.5408 41.6034 13.8611 42.484 14.454C43.1111 14.8732 43.8683 15.6127 43.93 16.7441C43.9711 17.5381 43.7415 18.1447 43.3783 18.6013L43.3646 18.5979C39.2186 17.4938 34.795 18.3185 31.211 19.6237C31.1767 19.5521 31.1424 19.484 31.1082 19.4124C30.8889 19.0035 30.6182 18.6525 30.3749 18.3901C30.3749 18.3901 30.3749 18.3901 30.3749 18.3935C30.1933 18.1958 30.0014 18.0084 29.789 17.8278C32.2355 15.6638 35.5215 13.7384 39.4002 13.6362ZM45.9824 19.6884C45.7768 19.5487 45.561 19.4329 45.3417 19.3204C45.7494 18.6627 45.9824 17.855 45.931 16.8906C45.8625 15.5548 45.1224 14.3552 43.8615 13.5101C42.7204 12.7467 41.2299 12.3446 39.9553 12.4468C39.9759 12.3753 39.9998 12.3037 40.0135 12.2288C40.226 11.1894 39.9519 10.1057 39.2186 9.08334C38.8897 8.63011 38.4819 8.2348 38.0056 7.91787C35.9806 6.56157 33.1058 6.749 31.4748 7.71341C30.7929 8.05419 30.183 8.4529 29.6177 8.87888C29.6177 8.72893 29.6211 8.57899 29.6177 8.43586C29.5971 7.17156 28.8399 5.89023 27.6372 5.08258C26.6949 4.45213 25.5094 4.1318 24.2039 4.14884C24.1353 4.14884 24.0668 4.15225 23.9983 4.15565C23.9332 4.15225 23.8647 4.14884 23.7961 4.14884C22.4906 4.1318 21.3017 4.45213 20.3628 5.08258C19.1601 5.89023 18.3995 7.17156 18.3789 8.43586C18.3789 8.57899 18.3789 8.72893 18.3823 8.87888C17.817 8.4529 17.207 8.05419 16.5218 7.71341C14.8942 6.749 12.016 6.56157 9.99436 7.91787C9.51808 8.2348 9.10691 8.63011 8.78139 9.08334C8.04471 10.1057 7.77401 11.1894 7.98303 12.2288C8.00016 12.3037 8.02415 12.3753 8.0447 12.4468C6.76664 12.3446 5.27613 12.7467 4.13854 13.5101C2.87418 14.3552 2.13749 15.5548 2.06896 16.8906C2.01414 17.855 2.24714 18.6627 2.65489 19.3204C2.43902 19.4329 2.22316 19.5487 2.01757 19.6884C0.232385 20.8846 -0.446054 22.7044 0.297487 24.3299C1.00676 25.8838 2.43902 26.6676 3.91582 26.896C3.19284 27.8127 2.69943 28.9849 2.58979 30.1266C2.47671 31.3704 2.81593 32.4916 3.57661 33.3572C5.12879 35.1224 7.11956 35.0679 8.64091 34.3897C8.37022 35.4904 8.53811 36.8433 9.12061 38.0088C9.76821 39.3072 10.8578 40.2614 12.1907 40.6976C14.1095 41.3212 15.4356 40.8339 16.2134 40.3125C16.7685 39.941 17.2345 39.4094 17.5497 38.8165C17.536 39.0346 17.5257 39.2493 17.5223 39.4605C17.4983 41.2496 19.2389 43.7919 23.1965 43.8498C23.4706 43.8566 23.7379 43.8464 23.9983 43.8259C24.2621 43.8464 24.5294 43.8566 24.8001 43.8498C28.7576 43.7919 30.5017 41.2496 30.4743 39.4605C30.4709 39.2493 30.4606 39.0346 30.4469 38.8165C30.7621 39.4094 31.2281 39.941 31.7866 40.3125C32.5644 40.8339 33.8939 41.3212 35.8059 40.6976C37.1387 40.2614 38.2318 39.3072 38.876 38.0088C39.4619 36.8433 39.6298 35.4904 39.3557 34.3897C40.877 35.0679 42.8712 35.1224 44.4234 33.3572C45.1806 32.4916 45.5233 31.3704 45.4068 30.1266C45.3006 28.9849 44.8037 27.8127 44.0807 26.896C45.5575 26.6676 46.9932 25.8838 47.7025 24.3299C48.4461 22.7044 47.7676 20.8846 45.9824 19.6884Z" fill="#4D9738"/>
</svg>
